ffmpeg started on 2026-03-24 at 12:55:38
Report written to "D:\Convert\FFMetrics\reports\ssim_report-6.txt"
Log level: 32
Command line:
ffmpeg -hide_banner -nostdin -r 24000/1001 -i "F:\\\xc0\xed\xe8\xec\xe5\\LightFamily\\\xcc\xee\xe6\xe5\xf2 \xeb\xe8 \xf1\xf3\xf9\xe5\xf1\xf2\xe2\xee\xe2\xe0\xf2\xfc \xe4\xf0\xf3\xe6\xe1\xe0 \xec\xe5\xe6\xe4\xf3 \xec\xf3\xe6\xf7\xe8\xed\xee\xe9 \xe8 \xe6\xe5\xed\xf9\xe8\xed\xee\xe9 (\xcd\xe5\xf2, \xfd\xf2\xee \xed\xe5 \xf2\xe0\xea!)\\LightFamilyDUB_\xcc\xee\xe6\xe5\xf2_\xeb\xe8_\xf1\xf3\xf9\xe5\xf1\xf2\xe2\xee\xe2\xe0\xf2\xfc_\xe4\xf0\xf3\xe6\xe1\xe0_\xec\xe5\xe6\xe4\xf3_\xef\xe0\xf0\xed\xe5\xec_\xe8_\xe4\xe5\xe2\xf3\xf8\xea\xee\xe9_06_HEVC.mkv" -r 24000/1001 -i "F:\\\xc0\xed\xe8\xec\xe5\\LightFamily\\\xcc\xee\xe6\xe5\xf2 \xeb\xe8 \xf1\xf3\xf9\xe5\xf1\xf2\xe2\xee\xe2\xe0\xf2\xfc \xe4\xf0\xf3\xe6\xe1\xe0 \xec\xe5\xe6\xe4\xf3 \xec\xf3\xe6\xf7\xe8\xed\xee\xe9 \xe8 \xe6\xe5\xed\xf9\xe8\xed\xee\xe9 (\xcd\xe5\xf2, \xfd\xf2\xee \xed\xe5 \xf2\xe0\xea!)\\LightFamilyDUB_\xcc\xee\xe6\xe5\xf2_\xeb\xe8_\xf1\xf3\xf9\xe5\xf1\xf2\xe2\xee\xe2\xe0\xf2\xfc_\xe4\xf0\xf3\xe6\xe1\xe0_\xec\xe5\xe6\xe4\xf3_\xef\xe0\xf0\xed\xe5\xec_\xe8_\xe4\xe5\xe2\xf3\xf8\xea\xee\xe9_06.mp4" -lavfi "[0:v]settb=AVTB,setpts=PTS-STARTPTS,format=pix_fmts=yuv420p10le,fps=24000/1001,scale=1920:1080:flags=lanczos:param0=3:out_range=limited:out_chroma_loc=left,setsar=1/1,setdar=(1920/1080)*(1/1)[main];[1:v]settb=AVTB,setpts=PTS-STARTPTS,format=pix_fmts=yuv420p,fps=24000/1001,scale=1920:1080:flags=lanczos:param0=3:out_range=limited:out_chroma_loc=left,setsar=1/1,setdar=(1920/1080)*(1/1)[ref];[main][ref]ssim=eof_action=endall:stats_file='D\\:/Convert/FFMetrics/logs/ssim_logfile-6.txt'" -f null -
Input #0, matroska,webm, from 'F:\Аниме\LightFamily\Может ли существовать дружба между мужчиной и женщиной (Нет, это не так!)\LightFamilyDUB_Может_ли_существовать_дружба_между_парнем_и_девушкой_06_HEVC.mkv':
  Metadata:
    COMPATIBLE_BRANDS: mp42mp41
    MAJOR_BRAND     : mp42
    MINOR_VERSION   : 0
    ENCODER         : Lavf61.7.100
  Duration: 00:23:39.99, start: -0.021000, bitrate: 890 kb/s
  Stream #0:0(eng): Video: hevc (Main 10), yuv420p10le(tv, progressive), 1920x1080 [SAR 1:1 DAR 16:9], 23.98 fps, 23.98 tbr, 1k tbn (default)
      Metadata:
        HANDLER_NAME    : Mainconcept Video Media Handler
        VENDOR_ID       : [0][0][0][0]
        ENCODER         : Lavc61.19.100 libx265
        BPS             : 689968
        DURATION        : 00:23:39.960708333
        NUMBER_OF_FRAMES: 34045
        NUMBER_OF_BYTES : 122466047
        _STATISTICS_WRITING_APP: mkvpropedit v94.0 ('Initiate') 64-bit
        _STATISTICS_WRITING_DATE_UTC: 2026-03-24 06:26:45
        _STATISTICS_TAGS: BPS DURATION NUMBER_OF_FRAMES NUMBER_OF_BYTES
  Stream #0:1(eng): Audio: aac (LC), 48000 Hz, stereo, fltp (default)
      Metadata:
        HANDLER_NAME    : #Mainconcept MP4 Sound Media Handler
        VENDOR_ID       : [0][0][0][0]
        ENCODER         : Lavc61.19.100 aac
        BPS             : 196985
        DURATION        : 00:23:39.968000000
        NUMBER_OF_FRAMES: 66562
        NUMBER_OF_BYTES : 34964110
        _STATISTICS_WRITING_APP: mkvpropedit v94.0 ('Initiate') 64-bit
        _STATISTICS_WRITING_DATE_UTC: 2026-03-24 06:26:45
        _STATISTICS_TAGS: BPS DURATION NUMBER_OF_FRAMES NUMBER_OF_BYTES
Input #1, mov,mp4,m4a,3gp,3g2,mj2, from 'F:\Аниме\LightFamily\Может ли существовать дружба между мужчиной и женщиной (Нет, это не так!)\LightFamilyDUB_Может_ли_существовать_дружба_между_парнем_и_девушкой_06.mp4':
  Metadata:
    major_brand     : mp42
    minor_version   : 0
    compatible_brands: mp42mp41
    creation_time   : 2025-10-09T10:54:29.000000Z
  Duration: 00:23:39.96, start: 0.000000, bitrate: 8115 kb/s
  Stream #1:0[0x1](eng): Video: h264 (Main) (avc1 / 0x31637661), yuv420p(progressive), 1920x1080 [SAR 1:1 DAR 16:9], 7730 kb/s, 23.98 fps, 23.98 tbr, 24k tbn (default)
      Metadata:
        creation_time   : 2025-10-09T10:54:29.000000Z
        handler_name    : Mainconcept Video Media Handler
        vendor_id       : [0][0][0][0]
        encoder         : AVC Coding
  Stream #1:1[0x2](eng): Audio: aac (LC) (mp4a / 0x6134706D), 48000 Hz, stereo, fltp, 381 kb/s (default)
      Metadata:
        creation_time   : 2025-10-09T10:54:29.000000Z
        handler_name    : #Mainconcept MP4 Sound Media Handler
        vendor_id       : [0][0][0][0]
Stream mapping:
  Stream #0:0 (hevc) -> settb:default
  Stream #1:0 (h264) -> settb:default
  ssim:default -> Stream #0:0 (wrapped_avframe)
  Stream #0:1 -> #0:1 (aac (native) -> pcm_s16le (native))
Output #0, null, to 'pipe:':
  Metadata:
    COMPATIBLE_BRANDS: mp42mp41
    MAJOR_BRAND     : mp42
    MINOR_VERSION   : 0
    encoder         : Lavf61.7.100
  Stream #0:0: Video: wrapped_avframe, yuv420p10le(tv, progressive), 1920x1080 [SAR 1:1 DAR 16:9], q=2-31, 200 kb/s, 23.98 fps, 23.98 tbn
      Metadata:
        encoder         : Lavc61.19.100 wrapped_avframe
  Stream #0:1(eng): Audio: pcm_s16le, 48000 Hz, stereo, s16, 1536 kb/s (default)
      Metadata:
        HANDLER_NAME    : #Mainconcept MP4 Sound Media Handler
        VENDOR_ID       : [0][0][0][0]
        _STATISTICS_TAGS: BPS DURATION NUMBER_OF_FRAMES NUMBER_OF_BYTES
        BPS             : 196985
        DURATION        : 00:23:39.968000000
        NUMBER_OF_FRAMES: 66562
        NUMBER_OF_BYTES : 34964110
        _STATISTICS_WRITING_APP: mkvpropedit v94.0 ('Initiate') 64-bit
        _STATISTICS_WRITING_DATE_UTC: 2026-03-24 06:26:45
        encoder         : Lavc61.19.100 pcm_s16le
frame=  154 fps=0.0 q=-0.0 size=N/A time=00:00:06.42 bitrate=N/A speed=12.6x    frame=  316 fps=306 q=-0.0 size=N/A time=00:00:13.17 bitrate=N/A speed=12.7x    frame=  479 fps=310 q=-0.0 size=N/A time=00:00:19.97 bitrate=N/A speed=12.9x    frame=  688 fps=334 q=-0.0 size=N/A time=00:00:28.69 bitrate=N/A speed=13.9x    frame=  892 fps=345 q=-0.0 size=N/A time=00:00:37.20 bitrate=N/A speed=14.4x    frame= 1067 fps=345 q=-0.0 size=N/A time=00:00:44.50 bitrate=N/A speed=14.4x    frame= 1258 fps=349 q=-0.0 size=N/A time=00:00:52.46 bitrate=N/A speed=14.5x    frame= 1437 fps=348 q=-0.0 size=N/A time=00:00:59.93 bitrate=N/A speed=14.5x    frame= 1598 fps=344 q=-0.0 size=N/A time=00:01:06.64 bitrate=N/A speed=14.3x    frame= 1782 fps=346 q=-0.0 size=N/A time=00:01:14.32 bitrate=N/A speed=14.4x    frame= 1962 fps=346 q=-0.0 size=N/A time=00:01:21.83 bitrate=N/A speed=14.4x    frame= 2147 fps=346 q=-0.0 size=N/A time=00:01:29.54 bitrate=N/A speed=14.5x    frame= 2360 fps=352 q=-0.0 size=N/A time=00:01:38.43 bitrate=N/A speed=14.7x    frame= 2581 fps=358 q=-0.0 size=N/A time=00:01:47.64 bitrate=N/A speed=14.9x    frame= 2819 fps=364 q=-0.0 size=N/A time=00:01:57.57 bitrate=N/A speed=15.2x    frame= 3052 fps=370 q=-0.0 size=N/A time=00:02:07.29 bitrate=N/A speed=15.4x    frame= 3272 fps=373 q=-0.0 size=N/A time=00:02:16.46 bitrate=N/A speed=15.6x    frame= 3513 fps=378 q=-0.0 size=N/A time=00:02:26.52 bitrate=N/A speed=15.8x    frame= 3747 fps=382 q=-0.0 size=N/A time=00:02:36.28 bitrate=N/A speed=15.9x    frame= 3976 fps=385 q=-0.0 size=N/A time=00:02:45.83 bitrate=N/A speed=16.1x    frame= 4197 fps=388 q=-0.0 size=N/A time=00:02:55.04 bitrate=N/A speed=16.2x    frame= 4419 fps=389 q=-0.0 size=N/A time=00:03:04.30 bitrate=N/A speed=16.2x    frame= 4632 fps=391 q=-0.0 size=N/A time=00:03:13.19 bitrate=N/A speed=16.3x    frame= 4843 fps=391 q=-0.0 size=N/A time=00:03:21.99 bitrate=N/A speed=16.3x    frame= 5061 fps=392 q=-0.0 size=N/A time=00:03:31.08 bitrate=N/A speed=16.3x    frame= 5302 fps=395 q=-0.0 size=N/A time=00:03:41.13 bitrate=N/A speed=16.5x    frame= 5523 fps=396 q=-0.0 size=N/A time=00:03:50.35 bitrate=N/A speed=16.5x    frame= 5746 fps=398 q=-0.0 size=N/A time=00:03:59.65 bitrate=N/A speed=16.6x    frame= 5979 fps=399 q=-0.0 size=N/A time=00:04:09.37 bitrate=N/A speed=16.7x    frame= 6212 fps=401 q=-0.0 size=N/A time=00:04:19.09 bitrate=N/A speed=16.7x    frame= 6444 fps=403 q=-0.0 size=N/A time=00:04:28.76 bitrate=N/A speed=16.8x    frame= 6682 fps=404 q=-0.0 size=N/A time=00:04:38.69 bitrate=N/A speed=16.9x    frame= 6926 fps=407 q=-0.0 size=N/A time=00:04:48.87 bitrate=N/A speed=  17x    frame= 7151 fps=408 q=-0.0 size=N/A time=00:04:58.25 bitrate=N/A speed=  17x    frame= 7378 fps=408 q=-0.0 size=N/A time=00:05:07.72 bitrate=N/A speed=  17x    frame= 7600 fps=409 q=-0.0 size=N/A time=00:05:16.98 bitrate=N/A speed=17.1x    frame= 7830 fps=410 q=-0.0 size=N/A time=00:05:26.57 bitrate=N/A speed=17.1x    frame= 8067 fps=411 q=-0.0 size=N/A time=00:05:36.46 bitrate=N/A speed=17.2x    frame= 8299 fps=412 q=-0.0 size=N/A time=00:05:46.13 bitrate=N/A speed=17.2x    frame= 8529 fps=413 q=-0.0 size=N/A time=00:05:55.73 bitrate=N/A speed=17.2x    frame= 8762 fps=414 q=-0.0 size=N/A time=00:06:05.44 bitrate=N/A speed=17.3x    frame= 8995 fps=415 q=-0.0 size=N/A time=00:06:15.16 bitrate=N/A speed=17.3x    frame= 9209 fps=415 q=-0.0 size=N/A time=00:06:24.09 bitrate=N/A speed=17.3x    frame= 9443 fps=416 q=-0.0 size=N/A time=00:06:33.85 bitrate=N/A speed=17.3x    frame= 9653 fps=416 q=-0.0 size=N/A time=00:06:42.61 bitrate=N/A speed=17.3x    frame= 9872 fps=416 q=-0.0 size=N/A time=00:06:51.78 bitrate=N/A speed=17.3x    frame=10102 fps=417 q=-0.0 size=N/A time=00:07:01.33 bitrate=N/A speed=17.4x    frame=10340 fps=418 q=-0.0 size=N/A time=00:07:11.26 bitrate=N/A speed=17.4x    frame=10587 fps=419 q=-0.0 size=N/A time=00:07:21.56 bitrate=N/A speed=17.5x    frame=10823 fps=419 q=-0.0 size=N/A time=00:07:31.40 bitrate=N/A speed=17.5x    frame=11039 fps=420 q=-0.0 size=N/A time=00:07:40.41 bitrate=N/A speed=17.5x    frame=11256 fps=420 q=-0.0 size=N/A time=00:07:49.46 bitrate=N/A speed=17.5x    frame=11490 fps=420 q=-0.0 size=N/A time=00:07:59.22 bitrate=N/A speed=17.5x    frame=11716 fps=420 q=-0.0 size=N/A time=00:08:08.65 bitrate=N/A speed=17.5x    frame=11931 fps=420 q=-0.0 size=N/A time=00:08:17.62 bitrate=N/A speed=17.5x    frame=12166 fps=421 q=-0.0 size=N/A time=00:08:27.42 bitrate=N/A speed=17.6x    frame=12396 fps=421 q=-0.0 size=N/A time=00:08:37.01 bitrate=N/A speed=17.6x    frame=12618 fps=422 q=-0.0 size=N/A time=00:08:46.27 bitrate=N/A speed=17.6x    frame=12830 fps=422 q=-0.0 size=N/A time=00:08:55.11 bitrate=N/A speed=17.6x    frame=13068 fps=422 q=-0.0 size=N/A time=00:09:05.04 bitrate=N/A speed=17.6x    frame=13290 fps=422 q=-0.0 size=N/A time=00:09:14.30 bitrate=N/A speed=17.6x    frame=13524 fps=423 q=-0.0 size=N/A time=00:09:24.06 bitrate=N/A speed=17.6x    frame=13734 fps=423 q=-0.0 size=N/A time=00:09:32.82 bitrate=N/A speed=17.6x    frame=13966 fps=423 q=-0.0 size=N/A time=00:09:42.49 bitrate=N/A speed=17.6x    frame=14191 fps=423 q=-0.0 size=N/A time=00:09:51.88 bitrate=N/A speed=17.7x    frame=14426 fps=424 q=-0.0 size=N/A time=00:10:01.68 bitrate=N/A speed=17.7x    frame=14654 fps=424 q=-0.0 size=N/A time=00:10:11.19 bitrate=N/A speed=17.7x    frame=14882 fps=424 q=-0.0 size=N/A time=00:10:20.70 bitrate=N/A speed=17.7x    frame=15092 fps=424 q=-0.0 size=N/A time=00:10:29.46 bitrate=N/A speed=17.7x    frame=15301 fps=424 q=-0.0 size=N/A time=00:10:38.17 bitrate=N/A speed=17.7x    frame=15514 fps=424 q=-0.0 size=N/A time=00:10:47.06 bitrate=N/A speed=17.7x    frame=15743 fps=424 q=-0.0 size=N/A time=00:10:56.61 bitrate=N/A speed=17.7x    frame=15970 fps=424 q=-0.0 size=N/A time=00:11:06.08 bitrate=N/A speed=17.7x    frame=16211 fps=425 q=-0.0 size=N/A time=00:11:16.13 bitrate=N/A speed=17.7x    frame=16442 fps=425 q=-0.0 size=N/A time=00:11:25.76 bitrate=N/A speed=17.7x    frame=16675 fps=425 q=-0.0 size=N/A time=00:11:35.48 bitrate=N/A speed=17.7x    frame=16898 fps=425 q=-0.0 size=N/A time=00:11:44.78 bitrate=N/A speed=17.7x    frame=17142 fps=426 q=-0.0 size=N/A time=00:11:54.96 bitrate=N/A speed=17.8x    frame=17376 fps=426 q=-0.0 size=N/A time=00:12:04.72 bitrate=N/A speed=17.8x    frame=17611 fps=427 q=-0.0 size=N/A time=00:12:14.52 bitrate=N/A speed=17.8x    frame=17847 fps=427 q=-0.0 size=N/A time=00:12:24.36 bitrate=N/A speed=17.8x    frame=18056 fps=427 q=-0.0 size=N/A time=00:12:33.08 bitrate=N/A speed=17.8x    frame=18266 fps=427 q=-0.0 size=N/A time=00:12:41.84 bitrate=N/A speed=17.8x    frame=18479 fps=426 q=-0.0 size=N/A time=00:12:50.72 bitrate=N/A speed=17.8x    frame=18711 fps=427 q=-0.0 size=N/A time=00:13:00.40 bitrate=N/A speed=17.8x    frame=18925 fps=427 q=-0.0 size=N/A time=00:13:09.33 bitrate=N/A speed=17.8x    frame=19154 fps=427 q=-0.0 size=N/A time=00:13:18.88 bitrate=N/A speed=17.8x    frame=19395 fps=427 q=-0.0 size=N/A time=00:13:28.93 bitrate=N/A speed=17.8x    frame=19625 fps=427 q=-0.0 size=N/A time=00:13:38.52 bitrate=N/A speed=17.8x    frame=19849 fps=427 q=-0.0 size=N/A time=00:13:47.86 bitrate=N/A speed=17.8x    frame=20070 fps=428 q=-0.0 size=N/A time=00:13:57.08 bitrate=N/A speed=17.8x    frame=20304 fps=428 q=-0.0 size=N/A time=00:14:06.84 bitrate=N/A speed=17.8x    frame=20528 fps=428 q=-0.0 size=N/A time=00:14:16.18 bitrate=N/A speed=17.8x    frame=20759 fps=428 q=-0.0 size=N/A time=00:14:25.82 bitrate=N/A speed=17.9x    frame=20995 fps=428 q=-0.0 size=N/A time=00:14:35.66 bitrate=N/A speed=17.9x    frame=21231 fps=429 q=-0.0 size=N/A time=00:14:45.50 bitrate=N/A speed=17.9x    frame=21469 fps=429 q=-0.0 size=N/A time=00:14:55.43 bitrate=N/A speed=17.9x    frame=21707 fps=429 q=-0.0 size=N/A time=00:15:05.36 bitrate=N/A speed=17.9x    frame=21938 fps=430 q=-0.0 size=N/A time=00:15:14.99 bitrate=N/A speed=17.9x    frame=22169 fps=430 q=-0.0 size=N/A time=00:15:24.63 bitrate=N/A speed=17.9x    frame=22405 fps=430 q=-0.0 size=N/A time=00:15:34.47 bitrate=N/A speed=17.9x    frame=22626 fps=430 q=-0.0 size=N/A time=00:15:43.69 bitrate=N/A speed=17.9x    frame=22859 fps=430 q=-0.0 size=N/A time=00:15:53.41 bitrate=N/A speed=17.9x    frame=23093 fps=430 q=-0.0 size=N/A time=00:16:03.17 bitrate=N/A speed=  18x    frame=23317 fps=431 q=-0.0 size=N/A time=00:16:12.51 bitrate=N/A speed=  18x    frame=23549 fps=431 q=-0.0 size=N/A time=00:16:22.18 bitrate=N/A speed=  18x    frame=23776 fps=431 q=-0.0 size=N/A time=00:16:31.65 bitrate=N/A speed=  18x    frame=24010 fps=431 q=-0.0 size=N/A time=00:16:41.41 bitrate=N/A speed=  18x    frame=24207 fps=431 q=-0.0 size=N/A time=00:16:49.63 bitrate=N/A speed=  18x    frame=24417 fps=430 q=-0.0 size=N/A time=00:16:58.39 bitrate=N/A speed=  18x    frame=24648 fps=430 q=-0.0 size=N/A time=00:17:08.02 bitrate=N/A speed=  18x    frame=24882 fps=431 q=-0.0 size=N/A time=00:17:17.78 bitrate=N/A speed=  18x    frame=25109 fps=431 q=-0.0 size=N/A time=00:17:27.25 bitrate=N/A speed=  18x    frame=25356 fps=431 q=-0.0 size=N/A time=00:17:37.55 bitrate=N/A speed=  18x    frame=25586 fps=431 q=-0.0 size=N/A time=00:17:47.14 bitrate=N/A speed=  18x    frame=25820 fps=432 q=-0.0 size=N/A time=00:17:56.90 bitrate=N/A speed=  18x    frame=26039 fps=432 q=-0.0 size=N/A time=00:18:06.04 bitrate=N/A speed=  18x    frame=26270 fps=432 q=-0.0 size=N/A time=00:18:15.67 bitrate=N/A speed=  18x    frame=26493 fps=432 q=-0.0 size=N/A time=00:18:24.97 bitrate=N/A speed=  18x    frame=26733 fps=432 q=-0.0 size=N/A time=00:18:34.98 bitrate=N/A speed=  18x    frame=26974 fps=432 q=-0.0 size=N/A time=00:18:45.04 bitrate=N/A speed=  18x    frame=27209 fps=432 q=-0.0 size=N/A time=00:18:54.84 bitrate=N/A speed=  18x    frame=27430 fps=432 q=-0.0 size=N/A time=00:19:04.05 bitrate=N/A speed=  18x    frame=27662 fps=432 q=-0.0 size=N/A time=00:19:13.73 bitrate=N/A speed=  18x    frame=27895 fps=433 q=-0.0 size=N/A time=00:19:23.45 bitrate=N/A speed=  18x    frame=28112 fps=433 q=-0.0 size=N/A time=00:19:32.50 bitrate=N/A speed=  18x    frame=28353 fps=433 q=-0.0 size=N/A time=00:19:42.55 bitrate=N/A speed=18.1x    frame=28581 fps=433 q=-0.0 size=N/A time=00:19:52.06 bitrate=N/A speed=18.1x    frame=28807 fps=433 q=-0.0 size=N/A time=00:20:01.49 bitrate=N/A speed=18.1x    frame=29040 fps=433 q=-0.0 size=N/A time=00:20:11.21 bitrate=N/A speed=18.1x    frame=29265 fps=433 q=-0.0 size=N/A time=00:20:20.59 bitrate=N/A speed=18.1x    frame=29501 fps=433 q=-0.0 size=N/A time=00:20:30.43 bitrate=N/A speed=18.1x    frame=29729 fps=433 q=-0.0 size=N/A time=00:20:39.94 bitrate=N/A speed=18.1x    frame=29961 fps=434 q=-0.0 size=N/A time=00:20:49.62 bitrate=N/A speed=18.1x    frame=30195 fps=434 q=-0.0 size=N/A time=00:20:59.38 bitrate=N/A speed=18.1x    frame=30422 fps=434 q=-0.0 size=N/A time=00:21:08.85 bitrate=N/A speed=18.1x    frame=30657 fps=434 q=-0.0 size=N/A time=00:21:18.65 bitrate=N/A speed=18.1x    frame=30862 fps=434 q=-0.0 size=N/A time=00:21:27.20 bitrate=N/A speed=18.1x    frame=31084 fps=434 q=-0.0 size=N/A time=00:21:36.46 bitrate=N/A speed=18.1x    frame=31306 fps=434 q=-0.0 size=N/A time=00:21:45.72 bitrate=N/A speed=18.1x    frame=31520 fps=433 q=-0.0 size=N/A time=00:21:54.64 bitrate=N/A speed=18.1x    frame=31742 fps=433 q=-0.0 size=N/A time=00:22:03.90 bitrate=N/A speed=18.1x    frame=31954 fps=433 q=-0.0 size=N/A time=00:22:12.74 bitrate=N/A speed=18.1x    frame=32156 fps=433 q=-0.0 size=N/A time=00:22:21.17 bitrate=N/A speed=18.1x    frame=32321 fps=432 q=-0.0 size=N/A time=00:22:28.05 bitrate=N/A speed=  18x    frame=32518 fps=432 q=-0.0 size=N/A time=00:22:36.27 bitrate=N/A speed=  18x    frame=32693 fps=431 q=-0.0 size=N/A time=00:22:43.57 bitrate=N/A speed=  18x    frame=32874 fps=431 q=-0.0 size=N/A time=00:22:51.11 bitrate=N/A speed=  18x    frame=33064 fps=430 q=-0.0 size=N/A time=00:22:59.04 bitrate=N/A speed=17.9x    frame=33251 fps=430 q=-0.0 size=N/A time=00:23:06.84 bitrate=N/A speed=17.9x    frame=33454 fps=430 q=-0.0 size=N/A time=00:23:15.31 bitrate=N/A speed=17.9x    frame=33658 fps=429 q=-0.0 size=N/A time=00:23:23.81 bitrate=N/A speed=17.9x    frame=33866 fps=429 q=-0.0 size=N/A time=00:23:32.49 bitrate=N/A speed=17.9x    [Parsed_ssim_14 @ 00000262fb7bb380] SSIM Y:0.994087 (22.281946) U:0.994664 (22.728004) V:0.994411 (22.526534) All:0.994237 (22.393661)
[out#0/null @ 00000262e52f9180] video:14629KiB audio:266248KiB subtitle:0KiB other streams:0KiB global headers:0KiB muxing overhead: unknown
frame=34045 fps=429 q=-0.0 Lsize=N/A time=00:23:39.96 bitrate=N/A speed=17.9x    
